<svg width="787" height="556" viewBox="0 0 787 556" fill="none" xmlns="http://www.w3.org/2000/svg">
<g clip-path="url(#clip0_37_218)">
<path d="M458.321 83.8825C473.068 83.8825 485.022 71.9281 485.022 57.1817C485.022 42.4353 473.068 30.481 458.321 30.481C443.575 30.481 431.621 42.4353 431.621 57.1817C431.621 71.9281 443.575 83.8825 458.321 83.8825Z" fill="#F2F2F2"/>
<path d="M665.447 480.152C705.135 449.923 724.091 399.126 712.224 350.669C711.929 349.465 711.618 348.264 711.29 347.066C703.423 318.302 683.959 290.965 655.59 281.774C631.77 274.057 605.771 279.992 580.921 276.923C532.139 270.899 494.32 231.429 467.71 190.104C441.099 148.778 420.648 102.52 385.288 68.3794C327.003 12.104 231.926 -0.0120964 159.661 36.619C87.3967 73.2501 41.3648 154.519 43.328 235.514C45.2912 316.509 93.3743 393.946 163.203 435.031C188.855 450.124 218.524 460.816 248.051 457.075C273.671 453.829 296.95 440.062 322.45 435.975C362.541 429.55 402.377 447.676 437.052 468.799C471.728 489.922 505.223 514.959 544.627 524.752C582.888 534.26 630.29 506.93 665.447 480.152Z" fill="#F2F2F2"/>
<path d="M-3.05176e-05 417.291C8.68722 427.585 18.0835 437.258 28.12 446.241L758.7 447.241C768.736 438.258 778.133 428.585 786.82 418.291L-3.05176e-05 417.291Z" fill="#3F3D56"/>
<path d="M495.43 324.591V410.295C495.431 411.387 495.865 412.434 496.637 413.207C497.41 413.979 498.457 414.413 499.549 414.414H626.553C627.646 414.413 628.693 413.979 629.465 413.207C630.237 412.434 630.672 411.387 630.673 410.295V324.591C630.67 323.5 630.235 322.454 629.463 321.683C628.691 320.912 627.645 320.478 626.553 320.477H499.549C498.458 320.478 497.412 320.912 496.639 321.683C495.867 322.454 495.433 323.5 495.43 324.591V324.591Z" fill="#3F3D56"/>
<path d="M498.409 325.658V409.238C498.41 409.822 498.643 410.381 499.055 410.794C499.468 411.206 500.027 411.438 500.611 411.439H625.496C626.08 411.438 626.639 411.206 627.052 410.794C627.464 410.381 627.697 409.822 627.698 409.238V325.658C627.698 325.073 627.466 324.513 627.053 324.099C626.64 323.686 626.08 323.453 625.496 323.452H500.611C500.027 323.453 499.467 323.686 499.054 324.099C498.641 324.513 498.409 325.073 498.409 325.658V325.658Z" fill="#6C63FF"/>
<path d="M492.774 427.01C493.006 427.302 493.302 427.537 493.639 427.698C493.975 427.859 494.344 427.942 494.717 427.94H630.709C631.081 427.939 631.448 427.856 631.784 427.696C632.119 427.536 632.415 427.303 632.649 427.014C632.884 426.725 633.051 426.388 633.138 426.026C633.226 425.665 633.232 425.288 633.155 424.924L631.044 414.897C630.957 414.488 630.768 414.107 630.496 413.79C630.224 413.472 629.877 413.228 629.486 413.079C629.203 412.968 628.902 412.911 628.598 412.912H496.82C496.516 412.911 496.215 412.968 495.932 413.079C495.541 413.228 495.194 413.472 494.922 413.79C494.65 414.107 494.461 414.488 494.374 414.897L492.263 424.924C492.188 425.288 492.195 425.664 492.283 426.025C492.371 426.386 492.539 426.722 492.774 427.01V427.01Z" fill="#2F2E41"/>
<path d="M623.932 417.23H627.144C627.414 417.23 627.632 417.012 627.632 416.742V415.206C627.632 414.936 627.414 414.717 627.144 414.717H623.932C623.662 414.717 623.444 414.936 623.444 415.206V416.742C623.444 417.012 623.662 417.23 623.932 417.23Z" fill="#3F3D56"/>
<path d="M615.555 417.23H618.767C619.037 417.23 619.255 417.012 619.255 416.742V415.206C619.255 414.936 619.037 414.717 618.767 414.717H615.555C615.285 414.717 615.067 414.936 615.067 415.206V416.742C615.067 417.012 615.285 417.23 615.555 417.23Z" fill="#3F3D56"/>
<path d="M607.178 417.23H610.39C610.66 417.23 610.878 417.012 610.878 416.742V415.206C610.878 414.936 610.66 414.717 610.39 414.717H607.178C606.908 414.717 606.69 414.936 606.69 415.206V416.742C606.69 417.012 606.908 417.23 607.178 417.23Z" fill="#3F3D56"/>
<path d="M598.801 417.23H602.013C602.283 417.23 602.501 417.012 602.501 416.742V415.206C602.501 414.936 602.283 414.717 602.013 414.717H598.801C598.531 414.717 598.313 414.936 598.313 415.206V416.742C598.313 417.012 598.531 417.23 598.801 417.23Z" fill="#3F3D56"/>
<path d="M590.424 417.23H593.636C593.906 417.23 594.124 417.012 594.124 416.742V415.206C594.124 414.936 593.906 414.717 593.636 414.717H590.424C590.154 414.717 589.936 414.936 589.936 415.206V416.742C589.936 417.012 590.154 417.23 590.424 417.23Z" fill="#3F3D56"/>
<path d="M582.047 417.23H585.259C585.529 417.23 585.747 417.012 585.747 416.742V415.206C585.747 414.936 585.529 414.717 585.259 414.717H582.047C581.777 414.717 581.559 414.936 581.559 415.206V416.742C581.559 417.012 581.777 417.23 582.047 417.23Z" fill="#3F3D56"/>
<path d="M573.67 417.23H576.882C577.152 417.23 577.37 417.012 577.37 416.742V415.206C577.37 414.936 577.152 414.717 576.882 414.717H573.67C573.4 414.717 573.182 414.936 573.182 415.206V416.742C573.182 417.012 573.4 417.23 573.67 417.23Z" fill="#3F3D56"/>
<path d="M565.293 417.23H568.505C568.775 417.23 568.993 417.012 568.993 416.742V415.206C568.993 414.936 568.775 414.717 568.505 414.717H565.293C565.023 414.717 564.805 414.936 564.805 415.206V416.742C564.805 417.012 565.023 417.23 565.293 417.23Z" fill="#3F3D56"/>
<path d="M556.916 417.23H560.128C560.398 417.23 560.616 417.012 560.616 416.742V415.206C560.616 414.936 560.398 414.717 560.128 414.717H556.916C556.647 414.717 556.428 414.936 556.428 415.206V416.742C556.428 417.012 556.647 417.23 556.916 417.23Z" fill="#3F3D56"/>
<path d="M548.539 417.23H551.751C552.021 417.23 552.239 417.012 552.239 416.742V415.206C552.239 414.936 552.021 414.717 551.751 414.717H548.539C548.27 414.717 548.051 414.936 548.051 415.206V416.742C548.051 417.012 548.27 417.23 548.539 417.23Z" fill="#3F3D56"/>
<path d="M540.162 417.23H543.374C543.644 417.23 543.862 417.012 543.862 416.742V415.206C543.862 414.936 543.644 414.717 543.374 414.717H540.162C539.892 414.717 539.674 414.936 539.674 415.206V416.742C539.674 417.012 539.892 417.23 540.162 417.23Z" fill="#3F3D56"/>
<path d="M531.785 417.23H534.997C535.267 417.23 535.485 417.012 535.485 416.742V415.206C535.485 414.936 535.267 414.717 534.997 414.717H531.785C531.516 414.717 531.297 414.936 531.297 415.206V416.742C531.297 417.012 531.516 417.23 531.785 417.23Z" fill="#3F3D56"/>
<path d="M523.408 417.23H526.62C526.89 417.23 527.108 417.012 527.108 416.742V415.206C527.108 414.936 526.89 414.717 526.62 414.717H523.408C523.139 414.717 522.92 414.936 522.92 415.206V416.742C522.92 417.012 523.139 417.23 523.408 417.23Z" fill="#3F3D56"/>
<path d="M515.031 417.23H518.243C518.513 417.23 518.732 417.012 518.732 416.742V415.206C518.732 414.936 518.513 414.717 518.243 414.717H515.031C514.762 414.717 514.543 414.936 514.543 415.206V416.742C514.543 417.012 514.762 417.23 515.031 417.23Z" fill="#3F3D56"/>
<path d="M506.654 417.23H509.866C510.136 417.23 510.355 417.012 510.355 416.742V415.206C510.355 414.936 510.136 414.717 509.866 414.717H506.654C506.385 414.717 506.166 414.936 506.166 415.206V416.742C506.166 417.012 506.385 417.23 506.654 417.23Z" fill="#3F3D56"/>
<path d="M498.277 417.23H501.489C501.759 417.23 501.977 417.012 501.977 416.742V415.206C501.977 414.936 501.759 414.717 501.489 414.717H498.277C498.008 414.717 497.789 414.936 497.789 415.206V416.742C497.789 417.012 498.008 417.23 498.277 417.23Z" fill="#3F3D56"/>
<path d="M624.031 421.419H627.243C627.513 421.419 627.731 421.2 627.731 420.931V419.394C627.731 419.124 627.513 418.906 627.243 418.906H624.031C623.761 418.906 623.543 419.124 623.543 419.394V420.931C623.543 421.2 623.761 421.419 624.031 421.419Z" fill="#3F3D56"/>
<path d="M615.654 421.419H618.866C619.136 421.419 619.354 421.2 619.354 420.931V419.394C619.354 419.124 619.136 418.906 618.866 418.906H615.654C615.384 418.906 615.166 419.124 615.166 419.394V420.931C615.166 421.2 615.384 421.419 615.654 421.419Z" fill="#3F3D56"/>
<path d="M607.277 421.419H610.489C610.759 421.419 610.977 421.2 610.977 420.931V419.394C610.977 419.124 610.759 418.906 610.489 418.906H607.277C607.007 418.906 606.789 419.124 606.789 419.394V420.931C606.789 421.2 607.007 421.419 607.277 421.419Z" fill="#3F3D56"/>
<path d="M598.9 421.419H602.112C602.382 421.419 602.6 421.2 602.6 420.931V419.394C602.6 419.124 602.382 418.906 602.112 418.906H598.9C598.63 418.906 598.412 419.124 598.412 419.394V420.931C598.412 421.2 598.63 421.419 598.9 421.419Z" fill="#3F3D56"/>
<path d="M590.523 421.419H593.735C594.005 421.419 594.223 421.2 594.223 420.931V419.394C594.223 419.124 594.005 418.906 593.735 418.906H590.523C590.253 418.906 590.035 419.124 590.035 419.394V420.931C590.035 421.2 590.253 421.419 590.523 421.419Z" fill="#3F3D56"/>
<path d="M582.146 421.419H585.358C585.628 421.419 585.846 421.2 585.846 420.931V419.394C585.846 419.124 585.628 418.906 585.358 418.906H582.146C581.876 418.906 581.658 419.124 581.658 419.394V420.931C581.658 421.2 581.876 421.419 582.146 421.419Z" fill="#3F3D56"/>
<path d="M573.769 421.419H576.981C577.251 421.419 577.469 421.2 577.469 420.931V419.394C577.469 419.124 577.251 418.906 576.981 418.906H573.769C573.499 418.906 573.281 419.124 573.281 419.394V420.931C573.281 421.2 573.499 421.419 573.769 421.419Z" fill="#3F3D56"/>
<path d="M565.392 421.419H568.604C568.874 421.419 569.092 421.2 569.092 420.931V419.394C569.092 419.124 568.874 418.906 568.604 418.906H565.392C565.122 418.906 564.904 419.124 564.904 419.394V420.931C564.904 421.2 565.122 421.419 565.392 421.419Z" fill="#3F3D56"/>
<path d="M557.015 421.419H560.227C560.497 421.419 560.715 421.2 560.715 420.931V419.394C560.715 419.124 560.497 418.906 560.227 418.906H557.015C556.745 418.906 556.527 419.124 556.527 419.394V420.931C556.527 421.2 556.745 421.419 557.015 421.419Z" fill="#3F3D56"/>
<path d="M548.638 421.419H551.85C552.12 421.419 552.338 421.2 552.338 420.931V419.394C552.338 419.124 552.12 418.906 551.85 418.906H548.638C548.369 418.906 548.15 419.124 548.15 419.394V420.931C548.15 421.2 548.369 421.419 548.638 421.419Z" fill="#3F3D56"/>
<path d="M540.261 421.419H543.473C543.743 421.419 543.961 421.2 543.961 420.931V419.394C543.961 419.124 543.743 418.906 543.473 418.906H540.261C539.991 418.906 539.773 419.124 539.773 419.394V420.931C539.773 421.2 539.991 421.419 540.261 421.419Z" fill="#3F3D56"/>
<path d="M531.884 421.419H535.096C535.366 421.419 535.584 421.2 535.584 420.931V419.394C535.584 419.124 535.366 418.906 535.096 418.906H531.884C531.615 418.906 531.396 419.124 531.396 419.394V420.931C531.396 421.2 531.615 421.419 531.884 421.419Z" fill="#3F3D56"/>
<path d="M523.507 421.419H526.719C526.989 421.419 527.207 421.2 527.207 420.931V419.394C527.207 419.124 526.989 418.906 526.719 418.906H523.507C523.238 418.906 523.019 419.124 523.019 419.394V420.931C523.019 421.2 523.238 421.419 523.507 421.419Z" fill="#3F3D56"/>
<path d="M515.13 421.419H518.342C518.612 421.419 518.831 421.2 518.831 420.931V419.394C518.831 419.124 518.612 418.906 518.342 418.906H515.13C514.861 418.906 514.642 419.124 514.642 419.394V420.931C514.642 421.2 514.861 421.419 515.13 421.419Z" fill="#3F3D56"/>
<path d="M506.753 421.419H509.965C510.235 421.419 510.453 421.2 510.453 420.931V419.394C510.453 419.124 510.235 418.906 509.965 418.906H506.753C506.484 418.906 506.265 419.124 506.265 419.394V420.931C506.265 421.2 506.484 421.419 506.753 421.419Z" fill="#3F3D56"/>
<path d="M498.376 421.419H501.588C501.858 421.419 502.077 421.2 502.077 420.931V419.394C502.077 419.124 501.858 418.906 501.588 418.906H498.376C498.107 418.906 497.888 419.124 497.888 419.394V420.931C497.888 421.2 498.107 421.419 498.376 421.419Z" fill="#3F3D56"/>
<path d="M554.502 426.445H587.034C587.303 426.445 587.522 426.227 587.522 425.957V424.42C587.522 424.151 587.303 423.932 587.034 423.932H554.502C554.232 423.932 554.014 424.151 554.014 424.42V425.957C554.014 426.227 554.232 426.445 554.502 426.445Z" fill="#3F3D56"/>
<path d="M520.036 341.737H517.192C516.33 341.737 515.631 342.436 515.631 343.298C515.631 344.161 516.33 344.859 517.192 344.859H520.036C520.898 344.859 521.597 344.161 521.597 343.298C521.597 342.436 520.898 341.737 520.036 341.737Z" fill="white"/>
<path d="M552.559 341.737H549.715C548.853 341.737 548.154 342.436 548.154 343.298C548.154 344.161 548.853 344.859 549.715 344.859H552.559C553.421 344.859 554.12 344.161 554.12 343.298C554.12 342.436 553.421 341.737 552.559 341.737Z" fill="white"/>
<path d="M561.774 341.737H558.93C558.068 341.737 557.369 342.436 557.369 343.298C557.369 344.161 558.068 344.859 558.93 344.859H561.774C562.636 344.859 563.335 344.161 563.335 343.298C563.335 342.436 562.636 341.737 561.774 341.737Z" fill="white"/>
<path d="M543.712 341.477H526.039C525.176 341.477 524.477 342.175 524.477 343.038C524.477 343.9 525.176 344.599 526.039 344.599H543.712C544.575 344.599 545.274 343.9 545.274 343.038C545.274 342.175 544.575 341.477 543.712 341.477Z" fill="white"/>
<path d="M587.076 341.477H569.403C568.54 341.477 567.841 342.175 567.841 343.038C567.841 343.9 568.54 344.599 569.403 344.599H587.076C587.939 344.599 588.638 343.9 588.638 343.038C588.638 342.175 587.939 341.477 587.076 341.477Z" fill="white"/>
<path d="M528.709 348.784H525.865C525.003 348.784 524.304 349.483 524.304 350.345C524.304 351.207 525.003 351.906 525.865 351.906H528.709C529.571 351.906 530.27 351.207 530.27 350.345C530.27 349.483 529.571 348.784 528.709 348.784Z" fill="white"/>
<path d="M561.232 348.784H558.388C557.526 348.784 556.827 349.483 556.827 350.345C556.827 351.207 557.526 351.906 558.388 351.906H561.232C562.094 351.906 562.793 351.207 562.793 350.345C562.793 349.483 562.094 348.784 561.232 348.784Z" fill="white"/>
<path d="M570.446 348.784H567.603C566.741 348.784 566.042 349.483 566.042 350.345C566.042 351.207 566.741 351.906 567.603 351.906H570.446C571.309 351.906 572.008 351.207 572.008 350.345C572.008 349.483 571.309 348.784 570.446 348.784Z" fill="white"/>
<path d="M552.385 348.523H534.711C533.849 348.523 533.15 349.222 533.15 350.085C533.15 350.947 533.849 351.646 534.711 351.646H552.385C553.247 351.646 553.946 350.947 553.946 350.085C553.946 349.222 553.247 348.523 552.385 348.523Z" fill="white"/>
<path d="M595.749 348.523H578.075C577.213 348.523 576.514 349.222 576.514 350.085C576.514 350.947 577.213 351.646 578.075 351.646H595.749C596.611 351.646 597.31 350.947 597.31 350.085C597.31 349.222 596.611 348.523 595.749 348.523Z" fill="white"/>
<path d="M537.381 355.831H534.538C533.676 355.831 532.977 356.529 532.977 357.392C532.977 358.254 533.676 358.953 534.538 358.953H537.381C538.244 358.953 538.943 358.254 538.943 357.392C538.943 356.529 538.244 355.831 537.381 355.831Z" fill="white"/>
<path d="M569.904 355.831H567.061C566.199 355.831 565.5 356.529 565.5 357.392C565.5 358.254 566.199 358.953 567.061 358.953H569.904C570.767 358.953 571.466 358.254 571.466 357.392C571.466 356.529 570.767 355.831 569.904 355.831Z" fill="white"/>
<path d="M579.119 355.831H576.276C575.413 355.831 574.715 356.529 574.715 357.392C574.715 358.254 575.413 358.953 576.276 358.953H579.119C579.981 358.953 580.68 358.254 580.68 357.392C580.68 356.529 579.981 355.831 579.119 355.831Z" fill="white"/>
<path d="M561.058 355.57H543.384C542.522 355.57 541.823 356.269 541.823 357.131C541.823 357.994 542.522 358.692 543.384 358.692H561.058C561.92 358.692 562.619 357.994 562.619 357.131C562.619 356.269 561.92 355.57 561.058 355.57Z" fill="white"/>
<path d="M604.422 355.57H586.748C585.886 355.57 585.187 356.269 585.187 357.131C585.187 357.994 585.886 358.692 586.748 358.692H604.422C605.284 358.692 605.983 357.994 605.983 357.131C605.983 356.269 605.284 355.57 604.422 355.57Z" fill="white"/>
<path d="M546.054 362.877H543.211C542.348 362.877 541.649 363.576 541.649 364.438C541.649 365.3 542.348 365.999 543.211 365.999H546.054C546.916 365.999 547.615 365.3 547.615 364.438C547.615 363.576 546.916 362.877 546.054 362.877Z" fill="white"/>
<path d="M578.577 362.877H575.734C574.871 362.877 574.172 363.576 574.172 364.438C574.172 365.3 574.871 365.999 575.734 365.999H578.577C579.439 365.999 580.138 365.3 580.138 364.438C580.138 363.576 579.439 362.877 578.577 362.877Z" fill="white"/>
<path d="M587.792 362.877H584.948C584.086 362.877 583.387 363.576 583.387 364.438C583.387 365.3 584.086 365.999 584.948 365.999H587.792C588.654 365.999 589.353 365.3 589.353 364.438C589.353 363.576 588.654 362.877 587.792 362.877Z" fill="white"/>
<path d="M569.731 362.617H552.057C551.195 362.617 550.496 363.316 550.496 364.178C550.496 365.04 551.195 365.739 552.057 365.739H569.731C570.593 365.739 571.292 365.04 571.292 364.178C571.292 363.316 570.593 362.617 569.731 362.617Z" fill="white"/>
<path d="M552.559 390.897H549.715C548.853 390.897 548.154 391.596 548.154 392.459C548.154 393.321 548.853 394.02 549.715 394.02H552.559C553.421 394.02 554.12 393.321 554.12 392.459C554.12 391.596 553.421 390.897 552.559 390.897Z" fill="white"/>
<path d="M561.774 390.897H558.93C558.068 390.897 557.369 391.596 557.369 392.459C557.369 393.321 558.068 394.02 558.93 394.02H561.774C562.636 394.02 563.335 393.321 563.335 392.459C563.335 391.596 562.636 390.897 561.774 390.897Z" fill="white"/>
<path d="M587.076 391.158H569.403C568.54 391.158 567.841 391.857 567.841 392.719C567.841 393.581 568.54 394.28 569.403 394.28H587.076C587.939 394.28 588.638 393.581 588.638 392.719C588.638 391.857 587.939 391.158 587.076 391.158Z" fill="white"/>
<path d="M520.036 390.897H517.192C516.33 390.897 515.631 391.596 515.631 392.459C515.631 393.321 516.33 394.02 517.192 394.02H520.036C520.898 394.02 521.597 393.321 521.597 392.459C521.597 391.596 520.898 390.897 520.036 390.897Z" fill="white"/>
<path d="M543.712 391.158H526.039C525.176 391.158 524.477 391.857 524.477 392.719C524.477 393.581 525.176 394.28 526.039 394.28H543.712C544.575 394.28 545.274 393.581 545.274 392.719C545.274 391.857 544.575 391.158 543.712 391.158Z" fill="white"/>
<path d="M528.709 383.851H525.865C525.003 383.851 524.304 384.55 524.304 385.412C524.304 386.274 525.003 386.973 525.865 386.973H528.709C529.571 386.973 530.27 386.274 530.27 385.412C530.27 384.55 529.571 383.851 528.709 383.851Z" fill="white"/>
<path d="M561.232 383.851H558.388C557.526 383.851 556.827 384.55 556.827 385.412C556.827 386.274 557.526 386.973 558.388 386.973H561.232C562.094 386.973 562.793 386.274 562.793 385.412C562.793 384.55 562.094 383.851 561.232 383.851Z" fill="white"/>
<path d="M570.446 383.851H567.603C566.741 383.851 566.042 384.55 566.042 385.412C566.042 386.274 566.741 386.973 567.603 386.973H570.446C571.309 386.973 572.008 386.274 572.008 385.412C572.008 384.55 571.309 383.851 570.446 383.851Z" fill="white"/>
<path d="M552.385 384.111H534.711C533.849 384.111 533.15 384.81 533.15 385.672C533.15 386.535 533.849 387.233 534.711 387.233H552.385C553.247 387.233 553.946 386.535 553.946 385.672C553.946 384.81 553.247 384.111 552.385 384.111Z" fill="white"/>
<path d="M537.381 376.804H534.538C533.676 376.804 532.977 377.503 532.977 378.365C532.977 379.227 533.676 379.926 534.538 379.926H537.381C538.244 379.926 538.943 379.227 538.943 378.365C538.943 377.503 538.244 376.804 537.381 376.804Z" fill="white"/>
<path d="M569.904 376.804H567.061C566.199 376.804 565.5 377.503 565.5 378.365C565.5 379.227 566.199 379.926 567.061 379.926H569.904C570.767 379.926 571.466 379.227 571.466 378.365C571.466 377.503 570.767 376.804 569.904 376.804Z" fill="white"/>
<path d="M579.119 376.804H576.276C575.413 376.804 574.715 377.503 574.715 378.365C574.715 379.227 575.413 379.926 576.276 379.926H579.119C579.981 379.926 580.68 379.227 580.68 378.365C580.68 377.503 579.981 376.804 579.119 376.804Z" fill="white"/>
<path d="M561.058 377.064H543.384C542.522 377.064 541.823 377.763 541.823 378.626C541.823 379.488 542.522 380.187 543.384 380.187H561.058C561.92 380.187 562.619 379.488 562.619 378.626C562.619 377.763 561.92 377.064 561.058 377.064Z" fill="white"/>
<path d="M546.054 369.757H543.211C542.348 369.757 541.649 370.456 541.649 371.318C541.649 372.181 542.348 372.879 543.211 372.879H546.054C546.916 372.879 547.615 372.181 547.615 371.318C547.615 370.456 546.916 369.757 546.054 369.757Z" fill="white"/>
<path d="M578.577 369.757H575.734C574.871 369.757 574.172 370.456 574.172 371.318C574.172 372.181 574.871 372.879 575.734 372.879H578.577C579.439 372.879 580.138 372.181 580.138 371.318C580.138 370.456 579.439 369.757 578.577 369.757Z" fill="white"/>
<path d="M587.792 369.757H584.948C584.086 369.757 583.387 370.456 583.387 371.318C583.387 372.181 584.086 372.879 584.948 372.879H587.792C588.654 372.879 589.353 372.181 589.353 371.318C589.353 370.456 588.654 369.757 587.792 369.757Z" fill="white"/>
<path d="M569.731 370.018H552.057C551.195 370.018 550.496 370.717 550.496 371.579C550.496 372.441 551.195 373.14 552.057 373.14H569.731C570.593 373.14 571.292 372.441 571.292 371.579C571.292 370.717 570.593 370.018 569.731 370.018Z" fill="white"/>
<path d="M504.917 473.482L491.568 452.38L533.47 418.977L550.765 399.816C553.012 397.327 555.873 395.471 559.062 394.433C562.251 393.396 565.657 393.214 568.938 393.905C572.22 394.596 575.262 396.136 577.762 398.372C580.262 400.607 582.131 403.46 583.183 406.644C584.742 411.363 584.407 416.502 582.248 420.979C580.089 425.455 576.276 428.917 571.613 430.635L544.264 440.71L504.917 473.482Z" fill="#FFB6B6"/>
<path d="M191.69 320.481V423.041H263.54V320.481C263.541 319.743 263.306 319.024 262.868 318.43C262.431 317.837 261.815 317.398 261.11 317.181C260.778 317.071 260.43 317.017 260.08 317.021H195.16C194.705 317.02 194.254 317.109 193.833 317.282C193.413 317.456 193.03 317.71 192.708 318.032C192.386 318.353 192.13 318.735 191.955 319.155C191.781 319.575 191.69 320.026 191.69 320.481V320.481ZM219.73 355.721C219.749 353.699 220.565 351.766 222.001 350.343C223.438 348.92 225.378 348.121 227.4 348.121C229.422 348.121 231.362 348.92 232.798 350.343C234.235 351.766 235.051 353.699 235.07 355.721V367.621C235.06 369.648 234.247 371.589 232.81 373.019C231.372 374.449 229.427 375.252 227.4 375.252C225.373 375.252 223.428 374.449 221.99 373.019C220.553 371.589 219.74 369.648 219.73 367.621V355.721Z" fill="#2F2E41"/>
<path d="M191.47 419.761V429.651C191.472 430.163 191.675 430.654 192.036 431.017C192.398 431.38 192.888 431.586 193.4 431.591H261.83C262.343 431.588 262.834 431.383 263.195 431.019C263.557 430.655 263.76 430.164 263.76 429.651V419.761H191.47Z" fill="#3F3D56"/>
<path d="M78.66 165.961V353.221C78.6619 355.607 79.6107 357.895 81.2981 359.582C82.9855 361.27 85.2736 362.219 87.66 362.221H365.16C367.546 362.219 369.834 361.27 371.522 359.582C373.209 357.895 374.158 355.607 374.16 353.221V165.961C374.154 163.576 373.204 161.292 371.517 159.607C369.83 157.922 367.544 156.974 365.16 156.971H87.66C85.2757 156.974 82.9898 157.922 81.3029 159.607C79.616 161.292 78.6657 163.576 78.66 165.961Z" fill="#3F3D56"/>
<path d="M85.17 168.291V350.911C85.1722 352.186 85.6796 353.408 86.5812 354.309C87.4828 355.211 88.705 355.719 89.98 355.721H362.85C364.125 355.719 365.347 355.211 366.249 354.309C367.15 353.408 367.658 352.186 367.66 350.911V168.291C367.66 167.014 367.153 165.79 366.252 164.886C365.35 163.983 364.127 163.473 362.85 163.471H89.98C88.7034 163.473 87.4801 163.983 86.5783 164.886C85.6766 165.79 85.1701 167.014 85.17 168.291Z" fill="white"/>
<path d="M135.81 430.921C136.088 431.269 136.441 431.55 136.843 431.742C137.244 431.934 137.685 432.033 138.13 432.031H300.47C300.914 432.03 301.352 431.931 301.753 431.74C302.154 431.548 302.507 431.27 302.786 430.925C303.066 430.581 303.265 430.178 303.37 429.746C303.474 429.315 303.481 428.865 303.39 428.431L300.87 416.461C300.766 415.973 300.541 415.518 300.216 415.139C299.891 414.76 299.476 414.469 299.01 414.291C298.672 414.158 298.313 414.09 297.95 414.091H140.64C140.277 414.09 139.918 414.158 139.58 414.291C139.114 414.469 138.699 414.76 138.374 415.139C138.049 415.518 137.824 415.973 137.72 416.461L135.2 428.431C135.11 428.865 135.119 429.314 135.224 429.745C135.33 430.175 135.53 430.577 135.81 430.921Z" fill="#2F2E41"/>
<path d="M353.995 188.627H98.6711C98.4057 188.621 98.1532 188.512 97.9676 188.322C97.782 188.132 97.6781 187.877 97.6781 187.612C97.6781 187.347 97.782 187.092 97.9676 186.902C98.1532 186.712 98.4057 186.603 98.6711 186.597H353.995C354.26 186.603 354.512 186.712 354.698 186.902C354.884 187.092 354.988 187.347 354.988 187.612C354.988 187.877 354.884 188.132 354.698 188.322C354.512 188.512 354.26 188.621 353.995 188.627V188.627Z" fill="#3F3D56"/>
<path d="M116.051 181.413C119.338 181.413 122.002 178.689 122.002 175.33C122.002 171.97 119.338 169.247 116.051 169.247C112.765 169.247 110.101 171.97 110.101 175.33C110.101 178.689 112.765 181.413 116.051 181.413Z" fill="#3F3D56"/>
<path d="M136.607 181.413C139.894 181.413 142.558 178.689 142.558 175.33C142.558 171.97 139.894 169.247 136.607 169.247C133.321 169.247 130.657 171.97 130.657 175.33C130.657 178.689 133.321 181.413 136.607 181.413Z" fill="#3F3D56"/>
<path d="M157.163 181.413C160.45 181.413 163.114 178.689 163.114 175.33C163.114 171.97 160.45 169.247 157.163 169.247C153.877 169.247 151.213 171.97 151.213 175.33C151.213 178.689 153.877 181.413 157.163 181.413Z" fill="#3F3D56"/>
<path d="M341.616 170.751H327.016C326.728 170.758 326.453 170.877 326.251 171.084C326.05 171.29 325.937 171.567 325.937 171.856C325.937 172.145 326.05 172.422 326.251 172.628C326.453 172.835 326.728 172.954 327.016 172.961H341.616C341.907 172.957 342.184 172.839 342.388 172.632C342.592 172.425 342.706 172.146 342.706 171.856C342.706 171.566 342.592 171.287 342.388 171.08C342.184 170.873 341.907 170.755 341.616 170.751Z" fill="#3F3D56"/>
<path d="M341.616 174.901H327.016C326.728 174.907 326.453 175.027 326.251 175.233C326.049 175.44 325.935 175.717 325.935 176.006C325.935 176.295 326.049 176.572 326.251 176.779C326.453 176.985 326.728 177.104 327.016 177.111H341.616C341.907 177.107 342.185 176.989 342.389 176.783C342.594 176.576 342.708 176.297 342.708 176.006C342.708 175.715 342.594 175.436 342.389 175.229C342.185 175.022 341.907 174.904 341.616 174.901V174.901Z" fill="#3F3D56"/>
<path d="M341.616 179.051H327.016C326.728 179.058 326.453 179.177 326.251 179.383C326.05 179.59 325.937 179.867 325.937 180.156C325.937 180.444 326.05 180.722 326.251 180.928C326.453 181.135 326.728 181.254 327.016 181.261H341.616C341.907 181.257 342.184 181.138 342.388 180.932C342.592 180.725 342.706 180.446 342.706 180.156C342.706 179.865 342.592 179.587 342.388 179.38C342.184 179.173 341.907 179.055 341.616 179.051V179.051Z" fill="#3F3D56"/>
<path d="M693.596 424.101C694.036 425.384 694.872 426.494 695.983 427.272C697.094 428.05 698.423 428.457 699.779 428.432L726.271 427.75C727.637 427.724 728.957 427.256 730.035 426.416C731.114 425.577 731.891 424.411 732.252 423.093L736 383.006C737.33 383.609 738.778 383.906 740.238 383.877C741.507 383.845 742.756 383.564 743.916 383.049C745.076 382.534 746.122 381.796 746.997 380.877C747.871 379.957 748.556 378.875 749.012 377.691C749.468 376.507 749.686 375.245 749.654 373.976C749.622 372.708 749.341 371.458 748.826 370.299C748.311 369.139 747.573 368.092 746.654 367.218C745.735 366.344 744.652 365.659 743.468 365.203C742.284 364.747 741.022 364.529 739.753 364.56C739.17 364.559 738.588 364.619 738.017 364.741C737.397 364.07 736.642 363.536 735.803 363.173C734.963 362.811 734.057 362.629 733.143 362.638L692.393 363.69C692.055 363.703 691.718 363.745 691.388 363.815C690.494 363.982 689.646 364.338 688.902 364.859C688.157 365.381 687.533 366.056 687.071 366.839C686.61 367.622 686.321 368.495 686.225 369.399C686.129 370.303 686.228 371.217 686.514 372.08L693.596 424.101ZM736.769 380.284L739.437 370.732C739.74 369.628 739.747 368.464 739.457 367.357C739.587 367.357 739.701 367.295 739.83 367.295C741.659 367.257 743.429 367.946 744.751 369.211C746.073 370.476 746.839 372.213 746.882 374.042C746.925 375.871 746.24 377.643 744.979 378.968C743.718 380.293 741.983 381.064 740.154 381.112C738.971 381.149 737.801 380.863 736.769 380.284Z" fill="#2F2E41"/>
<path d="M691.388 363.815C692.256 368.779 702.017 372.269 713.753 371.663C724.546 371.165 733.371 367.376 734.988 362.884C734.389 362.707 733.767 362.624 733.143 362.638L692.393 363.69C692.055 363.703 691.718 363.745 691.388 363.815V363.815Z" fill="#3F3D56"/>
<path d="M715.904 402.073C715.958 402.06 716.009 402.037 716.055 402.007L721.808 398.241C721.878 398.196 721.935 398.134 721.975 398.061C722.014 397.988 722.035 397.906 722.035 397.823C722.035 397.74 722.014 397.658 721.975 397.585C721.935 397.512 721.878 397.45 721.809 397.405L715.829 393.488C715.774 393.452 715.713 393.427 715.648 393.414C715.583 393.402 715.517 393.402 715.452 393.416C715.388 393.429 715.327 393.455 715.272 393.492C715.218 393.529 715.171 393.576 715.135 393.631C715.099 393.686 715.074 393.748 715.062 393.812C715.05 393.877 715.051 393.943 715.064 394.008C715.078 394.072 715.104 394.133 715.141 394.188C715.178 394.242 715.226 394.288 715.281 394.324L720.622 397.822L715.508 401.17C715.409 401.235 715.336 401.333 715.302 401.446C715.269 401.56 715.276 401.681 715.324 401.79C715.371 401.898 715.456 401.986 715.562 402.038C715.668 402.09 715.79 402.102 715.904 402.073H715.904Z" fill="#6C63FF"/>
<path d="M706.818 402.492C706.914 402.467 707.001 402.415 707.068 402.34C707.134 402.266 707.177 402.174 707.19 402.075C707.204 401.976 707.188 401.876 707.144 401.787C707.1 401.697 707.03 401.623 706.944 401.573L701.641 398.533L706.766 394.726C706.819 394.687 706.863 394.638 706.897 394.581C706.931 394.525 706.953 394.463 706.963 394.398C706.972 394.333 706.969 394.267 706.953 394.203C706.937 394.139 706.908 394.079 706.869 394.027C706.83 393.974 706.781 393.93 706.725 393.896C706.668 393.862 706.606 393.84 706.541 393.831C706.476 393.821 706.41 393.824 706.346 393.84C706.283 393.856 706.223 393.885 706.17 393.924L700.432 398.186C700.365 398.236 700.312 398.301 700.276 398.376C700.241 398.452 700.225 398.534 700.23 398.617C700.235 398.7 700.261 398.78 700.304 398.851C700.348 398.921 700.409 398.98 700.481 399.021L706.446 402.441C706.559 402.505 706.692 402.524 706.818 402.492V402.492Z" fill="#6C63FF"/>
<path d="M715.332 405.373C715.381 405.361 715.427 405.341 715.469 405.315C715.525 405.281 715.574 405.236 715.613 405.183C715.652 405.13 715.68 405.07 715.695 405.006C715.711 404.942 715.714 404.876 715.704 404.811C715.694 404.746 715.671 404.684 715.637 404.628L707.481 391.22C707.412 391.107 707.301 391.026 707.172 390.994C707.043 390.963 706.907 390.985 706.794 391.054C706.681 391.123 706.6 391.234 706.568 391.362C706.537 391.491 706.558 391.627 706.627 391.74L714.782 405.149C714.838 405.24 714.921 405.311 715.02 405.351C715.119 405.392 715.229 405.399 715.332 405.373Z" fill="#6C63FF"/>
<path d="M256.84 243.827H212.649C210.846 243.827 209.385 245.289 209.385 247.091V251.409C209.385 253.211 210.846 254.673 212.649 254.673H256.84C258.642 254.673 260.104 253.211 260.104 251.409V247.091C260.104 245.289 258.642 243.827 256.84 243.827Z" fill="#6C63FF"/>
<path d="M282.598 265.519H186.89C185.087 265.519 183.626 266.98 183.626 268.783V273.1C183.626 274.903 185.087 276.364 186.89 276.364H282.598C284.401 276.364 285.862 274.903 285.862 273.1V268.783C285.862 266.98 284.401 265.519 282.598 265.519Z" fill="#E6E6E6"/>
<path d="M282.598 287.21H186.89C185.087 287.21 183.626 288.671 183.626 290.474V294.792C183.626 296.594 185.087 298.056 186.89 298.056H282.598C284.401 298.056 285.862 296.594 285.862 294.792V290.474C285.862 288.671 284.401 287.21 282.598 287.21Z" fill="#E6E6E6"/>
<path d="M290.711 359.846L290.928 360.53L290.939 360.553L297.465 380.391L304.971 403.252L319.094 446.213L319.23 452.887V452.91L320.28 506.594L317.371 513.872L320.645 525.805C320.645 525.805 319.139 507.768 311.062 518.126C306.488 524.012 301.138 530.036 296.746 535.682C303.146 538.272 309.648 540.614 316.253 542.709C317.679 543.166 319.116 543.599 320.554 544.033C320.862 544.124 321.17 544.215 321.478 544.307C343.372 550.781 366.008 554.42 388.829 555.132C390.015 555.167 391.179 555.189 392.308 555.212C392.707 555.224 393.095 555.235 393.483 555.235C394.761 555.247 396.027 555.258 397.304 555.258C399.883 555.258 402.449 555.22 405.005 555.144C423.918 554.611 442.721 552.068 461.096 547.558C460.971 539.972 460.628 531.108 460.138 521.64C459.91 516.997 454.788 511.966 454.48 507.106C454.263 503.456 458.86 500.022 458.621 496.314C457.069 473.488 455.13 482.25 453.693 466.086C453.544 464.5 453.407 462.983 453.282 461.534C452.358 451.153 451.719 444.662 451.719 444.662L457.856 405.979L467.496 345.244L466.754 344.024L465.922 343.613L415.078 318.448L412.317 311.375C411.513 309.337 410.117 307.587 408.31 306.349C406.502 305.111 404.366 304.442 402.176 304.428L368.683 304.291C366.944 304.283 365.229 304.69 363.68 305.477C362.131 306.265 360.791 307.411 359.773 308.82L350.704 321.379L290.711 359.846Z" fill="#3F3D56"/>
<path d="M326.817 436.654L319.23 452.887L314.051 463.975L305.142 510.621L300.682 515.355L296.86 498.596L256.862 507.477C255.55 500.187 256.511 507.723 255.701 499.727C255.929 499.498 256.169 499.27 256.408 499.042C257.047 498.449 257.583 497.89 257.572 497.354C257.116 469.77 258.485 422.827 269.915 394.388C271.705 389.745 274.066 385.342 276.942 381.281C277.17 380.973 277.387 380.665 277.604 380.357C282.874 372.976 286.205 365.709 290.928 360.542V360.53C290.957 360.507 290.984 360.48 291.008 360.45C291.025 360.442 291.04 360.43 291.053 360.416L323.497 343.213L324.889 382.319L325.881 410.427L326.817 436.654Z" fill="#3F3D56"/>
<path d="M443.801 441.265L453.277 461.539L456.585 468.6L465.492 515.242L469.937 519.965L473.768 503.209L475.568 502.84L508.026 496.118L517.487 526.164C519.619 522.611 520.459 518.431 519.865 514.331C519.271 510.23 517.278 506.46 514.225 503.659C513.579 503.074 513.041 502.505 513.056 501.966C513.595 469.523 511.61 410.283 493.689 385.901C487.997 378.163 484.582 370.456 479.613 365.072C479.598 365.056 479.598 365.041 479.583 365.041L467.491 345.243L466.753 344.028L465.922 343.612L443.801 441.265Z" fill="#3F3D56"/>
<path d="M386.397 294.759C411.005 294.759 430.955 274.809 430.955 250.2C430.955 225.592 411.005 205.642 386.397 205.642C361.788 205.642 341.838 225.592 341.838 250.2C341.838 274.809 361.788 294.759 386.397 294.759Z" fill="#FFB6B6"/>
<path d="M446.622 219.077C446.277 218.708 445.861 218.412 445.398 218.208C444.936 218.003 444.438 217.894 443.932 217.887L444.602 216.027C444.821 215.441 444.88 214.807 444.773 214.191C444.667 213.575 444.398 212.998 443.995 212.52C443.592 212.042 443.069 211.679 442.48 211.469C441.891 211.26 441.257 211.21 440.642 211.327L438.202 211.797L438.432 210.167C438.52 209.56 438.449 208.94 438.225 208.369C438.001 207.798 437.633 207.295 437.155 206.909C436.678 206.524 436.109 206.269 435.503 206.171C434.898 206.072 434.277 206.133 433.702 206.347C433.179 206.552 432.617 206.639 432.056 206.599C431.496 206.559 430.951 206.394 430.462 206.117C429.972 205.847 429.546 205.474 429.214 205.024C428.882 204.573 428.653 204.055 428.542 203.507L427.692 199.407L427.602 199.187C423.462 192.287 415.502 187.267 405.762 185.427C397.092 183.777 388.202 184.617 379.632 185.407C376.232 185.727 372.392 186.087 369.192 188.047C366.472 189.727 364.172 193.087 364.642 196.477C356.192 193.887 347.132 199.057 342.642 205.577C337.322 213.337 336.452 223.057 336.312 230.657C335.932 248.637 339.642 263.347 347.312 274.387C347.872 275.187 348.012 276.857 349.122 277.417L348.892 277.047C350.132 277.667 351.392 278.667 350.922 279.737C349.572 282.817 358.542 289.627 364.862 291.877C376.392 295.987 391.722 295.637 402.502 294.157L402.882 291.607C406.772 291.077 409.512 290.067 410.282 288.487C411.642 287.327 412.802 286.287 413.812 285.327L413.822 285.317C413.842 285.297 413.882 285.267 413.902 285.247C418.772 280.577 419.902 277.917 420.412 273.867C420.902 269.897 420.032 265.867 419.142 262.237C437.882 265.137 411.762 242.277 429.222 237.857C429.422 237.795 429.626 237.745 429.832 237.707C430.342 237.587 430.852 237.467 431.342 237.327C433.704 236.685 435.966 235.72 438.062 234.457C442.942 231.487 444.552 227.547 447.072 223.107C447.436 222.474 447.588 221.743 447.507 221.018C447.426 220.293 447.116 219.613 446.622 219.077V219.077Z" fill="#2F2E41"/>
<path d="M543.992 444.437C543.982 446.187 543.962 448.637 543.882 451.667C543.872 452.087 543.862 452.517 543.852 452.957C543.722 458.527 543.592 463.197 543.382 468.387C543.372 468.747 543.362 469.097 543.342 469.457C543.062 476.697 542.622 485.127 541.862 498.477C540.452 523.137 537.992 501.867 535.522 510.517C535.402 510.947 535.272 511.457 535.152 512.057C534.778 514.234 534.147 516.358 533.272 518.387C531.962 519.167 530.612 519.917 529.282 520.667C525.492 522.777 521.642 524.807 517.762 526.737C515.582 527.817 513.392 528.877 511.192 529.897C510.842 530.057 510.502 530.217 510.162 530.367C498.896 535.578 487.286 540.008 475.412 543.627C473.092 544.327 470.782 545.007 468.442 545.637C466.002 546.317 463.562 546.957 461.092 547.557C442.718 552.068 423.915 554.612 405.002 555.147C402.452 555.227 399.882 555.257 397.302 555.257C396.022 555.257 394.762 555.247 393.482 555.237C393.092 555.237 392.702 555.227 392.312 555.217C391.182 555.187 390.012 555.167 388.832 555.137C366.011 554.425 343.376 550.785 321.482 544.307L320.552 544.037C319.112 543.597 317.682 543.167 316.252 542.707C309.652 540.617 303.149 538.277 296.742 535.687C291.852 533.717 287.019 531.603 282.242 529.347C282.199 529.335 282.158 529.314 282.122 529.287C281.122 528.827 280.112 528.347 279.112 527.857C278.982 527.787 278.842 527.717 278.702 527.647C274.972 525.827 271.282 523.92 267.632 521.927C264.562 514.877 260.242 513.527 257.562 507.327C256.782 505.485 256.219 503.558 255.882 501.587C255.882 501.567 255.872 501.547 255.872 501.517C256.152 505.237 254.682 494.917 255.862 501.477C255.852 501.357 255.842 501.227 255.832 501.077C255.802 500.717 255.762 500.277 255.702 499.727C252.272 466.237 252.492 427.937 251.002 396.377C250.902 394.337 250.799 392.383 250.692 390.517C250.662 389.897 250.622 389.287 250.582 388.687C250.652 388.507 250.732 388.317 250.822 388.137C250.841 388.085 250.865 388.035 250.892 387.987C250.922 387.925 250.955 387.864 250.992 387.807C251.012 387.777 251.042 387.737 251.062 387.707C251.077 387.672 251.094 387.639 251.112 387.607C251.202 387.467 251.302 387.317 251.412 387.177C251.462 387.117 251.502 387.067 251.552 387.017C251.587 386.966 251.627 386.919 251.672 386.877C251.703 386.829 251.74 386.785 251.782 386.747C251.822 386.707 251.862 386.657 251.912 386.607C251.934 386.575 251.961 386.548 251.992 386.527C252.071 386.436 252.158 386.352 252.252 386.277C252.609 385.948 252.99 385.647 253.392 385.377C253.532 385.287 253.682 385.197 253.822 385.097C254.83 384.494 255.891 383.985 256.992 383.577C257.372 383.437 257.752 383.307 258.162 383.167C258.312 383.127 258.452 383.077 258.602 383.027C258.822 382.957 259.042 382.887 259.272 382.837C260.412 382.497 261.642 382.207 262.972 381.937C263.132 381.907 263.302 381.877 263.472 381.837C263.712 381.787 263.962 381.747 264.212 381.707C264.552 381.647 264.902 381.587 265.252 381.527C268.222 381.057 271.592 380.707 275.312 380.477C275.662 380.457 276.012 380.437 276.362 380.417C276.772 380.397 277.182 380.377 277.602 380.357C277.952 380.337 278.312 380.327 278.672 380.317C279.022 380.297 279.382 380.287 279.752 380.277C280.762 380.247 281.802 380.217 282.862 380.197C285.882 380.137 289.062 380.157 292.402 380.227C293.952 380.267 295.532 380.307 297.152 380.377C297.262 380.377 297.362 380.387 297.462 380.387C298.872 380.437 300.292 380.497 301.752 380.577C302.772 380.627 303.802 380.677 304.832 380.737C305.802 380.797 306.782 380.857 307.772 380.927C308.542 380.967 309.312 381.027 310.092 381.077C310.752 381.127 311.412 381.177 312.072 381.217L312.972 381.277C313.462 381.317 313.952 381.347 314.452 381.397C315.552 381.487 316.652 381.577 317.772 381.667C318.882 381.767 320.012 381.867 321.142 381.967C322.272 382.067 323.412 382.177 324.552 382.287C324.672 382.297 324.782 382.307 324.892 382.317C325.932 382.427 326.972 382.527 328.022 382.637C328.262 382.657 328.512 382.677 328.752 382.707C329.753 382.807 330.774 382.925 331.784 383.032C332.094 383.066 332.403 383.098 332.714 383.132C333.505 383.218 334.285 383.293 335.082 383.387C336.132 383.507 337.202 383.617 338.242 383.757C339.052 383.847 339.862 383.937 340.672 384.037C341.942 384.187 343.232 384.347 344.522 384.517C345.012 384.577 345.502 384.637 345.992 384.707C349.672 385.167 353.392 385.677 357.172 386.207C362.902 387.017 368.722 387.897 374.582 388.847C380.452 389.797 386.356 390.8 392.292 391.857C393.792 392.127 395.292 392.397 396.802 392.677C397.482 392.807 398.162 392.937 398.842 393.067C400.002 393.277 401.162 393.497 402.322 393.717C403.482 393.937 404.642 394.157 405.802 394.387C407.182 394.657 408.572 394.927 409.952 395.197C419.042 396.997 428.082 398.917 436.902 400.927C438.352 401.257 439.802 401.597 441.242 401.927C444.122 402.597 446.976 403.277 449.802 403.967C450.582 404.147 451.352 404.337 452.122 404.527C454.042 405.007 455.962 405.487 457.852 405.977L458.182 406.067C459.572 406.407 460.932 406.757 462.292 407.117C465.502 407.957 468.659 408.807 471.762 409.667C473.822 410.237 475.859 410.813 477.872 411.397C480.882 412.267 483.832 413.147 486.702 414.037C487.412 414.257 488.122 414.477 488.822 414.687C490.922 415.337 492.992 415.997 495.002 416.657C496.602 417.177 498.162 417.707 499.702 418.237C501.242 418.767 502.752 419.297 504.232 419.827C505.182 420.167 506.122 420.527 507.062 420.867C508.412 421.367 509.742 421.867 511.042 422.367C511.442 422.517 511.832 422.677 512.222 422.827C512.472 422.937 512.712 423.027 512.952 423.127C513.422 423.317 513.902 423.497 514.362 423.687C514.832 423.867 515.292 424.057 515.752 424.257C516.202 424.437 516.662 424.627 517.102 424.817C517.552 424.997 517.992 425.187 518.432 425.387C518.802 425.537 519.162 425.697 519.512 425.857C520.222 426.167 520.932 426.477 521.622 426.797C521.962 426.957 522.302 427.107 522.642 427.267L523.422 427.627C523.532 427.687 523.642 427.737 523.752 427.787C524.002 427.907 524.262 428.037 524.512 428.157C525.092 428.427 525.662 428.717 526.222 428.987C526.972 429.367 527.702 429.747 528.402 430.117C529.112 430.497 529.802 430.877 530.462 431.247C530.572 431.307 530.672 431.367 530.782 431.427C530.932 431.507 531.082 431.597 531.232 431.677C531.742 431.967 532.232 432.267 532.722 432.557C533.682 433.147 534.592 433.727 535.442 434.307C535.632 434.437 535.812 434.567 536.002 434.687C536.632 435.137 537.232 435.577 537.792 436.027C537.792 436.037 537.792 436.037 537.802 436.037C537.992 436.177 538.172 436.327 538.352 436.467C538.502 436.607 538.662 436.727 538.812 436.867C539.332 437.317 539.812 437.746 540.252 438.187C540.4 438.322 540.54 438.466 540.672 438.617C540.73 438.665 540.784 438.718 540.832 438.777C541.032 438.977 541.212 439.177 541.382 439.377C541.409 439.404 541.432 439.434 541.452 439.467C541.692 439.747 541.912 440.027 542.122 440.307C542.222 440.447 542.332 440.587 542.422 440.727C542.542 440.897 542.662 441.077 542.762 441.247C542.852 441.387 542.932 441.537 543.012 441.677C543.224 442.037 543.405 442.415 543.552 442.807C543.665 443.072 543.755 443.346 543.822 443.627C543.898 443.892 543.955 444.163 543.992 444.437V444.437Z" fill="#2F2E41"/>
<path opacity="0.2" d="M543.992 444.437C543.982 446.187 543.962 448.637 543.882 451.667C543.872 452.087 543.852 452.517 543.842 452.957C543.742 457.207 543.592 462.457 543.382 468.387C543.372 468.747 543.362 469.097 543.342 469.457C543.062 476.697 542.622 485.127 541.862 498.477C540.452 523.137 537.992 501.867 535.522 510.517C528.662 506.297 521.142 501.877 513.102 497.337C511.652 496.517 510.189 495.693 508.712 494.867C492.632 485.897 474.672 476.497 455.922 467.187C455.182 466.817 454.432 466.447 453.692 466.087C410.742 444.857 363.862 424.207 325.882 410.427C318.552 407.767 311.552 405.367 304.972 403.257C291.112 398.827 279.132 395.727 269.912 394.387C260.312 392.987 253.682 393.487 251.002 396.377C250.902 394.337 250.799 392.383 250.692 390.517C250.652 389.897 250.612 389.287 250.572 388.687C250.634 388.522 250.714 388.365 250.792 388.207C250.803 388.183 250.811 388.16 250.822 388.137C250.841 388.085 250.865 388.035 250.892 387.987C250.922 387.925 250.955 387.865 250.992 387.807C251.025 387.736 251.065 387.669 251.112 387.607C251.202 387.467 251.302 387.317 251.412 387.177C251.493 387.072 251.58 386.972 251.672 386.877C251.703 386.829 251.74 386.785 251.782 386.747C251.822 386.707 251.862 386.657 251.912 386.607C251.934 386.575 251.961 386.548 251.992 386.527C252.071 386.436 252.158 386.352 252.252 386.277C252.609 385.948 252.99 385.648 253.392 385.377C253.532 385.287 253.682 385.197 253.822 385.097C254.83 384.494 255.891 383.985 256.992 383.577C257.372 383.437 257.752 383.307 258.162 383.167C258.312 383.127 258.452 383.077 258.602 383.027C258.822 382.957 259.042 382.887 259.272 382.837C260.412 382.497 261.642 382.207 262.972 381.937C263.372 381.857 263.792 381.777 264.212 381.707C264.552 381.647 264.902 381.587 265.252 381.527C268.222 381.057 271.592 380.707 275.312 380.477C275.662 380.457 276.012 380.437 276.362 380.417C276.772 380.397 277.182 380.377 277.602 380.357C277.952 380.337 278.312 380.327 278.672 380.317C279.022 380.297 279.382 380.287 279.752 380.277C280.762 380.247 281.802 380.217 282.862 380.197C285.882 380.147 289.062 380.167 292.402 380.237C293.952 380.267 295.532 380.317 297.152 380.387C297.252 380.387 297.362 380.397 297.462 380.397C298.872 380.437 300.302 380.507 301.752 380.577C302.772 380.627 303.802 380.677 304.832 380.737C305.802 380.797 306.782 380.857 307.772 380.927C308.542 380.967 309.312 381.027 310.092 381.077C310.752 381.127 311.412 381.177 312.072 381.217C312.862 381.277 313.652 381.337 314.452 381.397C315.552 381.487 316.652 381.577 317.772 381.667C318.882 381.767 320.012 381.867 321.142 381.967C322.272 382.067 323.412 382.177 324.552 382.287C324.672 382.297 324.782 382.307 324.892 382.317C325.932 382.427 326.972 382.527 328.022 382.637C333.842 383.227 339.832 383.917 345.992 384.707C349.672 385.177 353.399 385.68 357.172 386.217C362.902 387.027 368.722 387.907 374.582 388.847C380.452 389.797 386.356 390.8 392.292 391.857C393.792 392.127 395.292 392.397 396.802 392.677C398.642 393.017 400.482 393.363 402.322 393.717C403.482 393.937 404.642 394.157 405.802 394.387C407.182 394.657 408.572 394.927 409.952 395.197C419.042 396.997 428.082 398.917 436.902 400.927C438.352 401.257 439.802 401.597 441.242 401.927C444.122 402.597 446.976 403.277 449.802 403.967C450.582 404.157 451.352 404.347 452.122 404.537C454.052 405.017 455.962 405.497 457.852 405.977V405.987C457.962 406.007 458.072 406.037 458.182 406.067C459.562 406.417 460.932 406.767 462.292 407.127C465.502 407.967 468.659 408.813 471.762 409.667C473.822 410.247 475.862 410.817 477.872 411.397C480.882 412.277 483.832 413.157 486.702 414.037C487.412 414.257 488.122 414.477 488.822 414.687C490.922 415.347 492.982 416.003 495.002 416.657C496.602 417.177 498.162 417.707 499.702 418.237C501.242 418.767 502.752 419.297 504.232 419.827C505.192 420.167 506.132 420.517 507.062 420.857C508.422 421.357 509.742 421.857 511.042 422.367C511.442 422.517 511.832 422.677 512.222 422.827C512.952 423.107 513.662 423.397 514.362 423.687C514.832 423.867 515.292 424.057 515.752 424.257C516.202 424.437 516.662 424.627 517.102 424.817C517.552 424.997 517.992 425.187 518.432 425.387C518.802 425.537 519.162 425.697 519.512 425.857C520.222 426.167 520.932 426.477 521.622 426.797C521.962 426.957 522.302 427.107 522.642 427.267L523.422 427.627C523.532 427.687 523.642 427.737 523.752 427.787C524.602 428.187 525.422 428.587 526.222 428.987C526.972 429.367 527.702 429.747 528.402 430.117C529.232 430.557 530.022 430.987 530.782 431.427C530.932 431.507 531.082 431.597 531.232 431.677C531.742 431.967 532.232 432.267 532.722 432.557C533.682 433.147 534.592 433.727 535.442 434.307C536.282 434.887 537.062 435.457 537.792 436.027C537.792 436.037 537.792 436.037 537.802 436.037C538.152 436.317 538.492 436.597 538.812 436.867C539.332 437.317 539.812 437.747 540.252 438.187C540.4 438.322 540.54 438.466 540.672 438.617C540.73 438.665 540.784 438.718 540.832 438.777C541.042 439.007 541.252 439.237 541.452 439.467C541.692 439.747 541.912 440.027 542.122 440.307C542.222 440.447 542.332 440.587 542.422 440.727C542.542 440.897 542.662 441.077 542.762 441.247C542.852 441.387 542.932 441.537 543.012 441.677C543.224 442.037 543.405 442.415 543.552 442.807C543.662 443.073 543.752 443.347 543.822 443.627C543.898 443.892 543.955 444.163 543.992 444.437V444.437Z" fill="black"/>
</g>
<defs>
<clipPath id="clip0_37_218">
<rect width="786.82" height="572.258" fill="white" transform="translate(0 -17)"/>
</clipPath>
</defs>
</svg>
